<?xml version="1.0" encoding="UTF-8" standalone="no"?>
<!-- Created with Inkscape (http://www.inkscape.org/) -->

<svg
   xmlns:dc="http://purl.org/dc/elements/1.1/"
   xmlns:cc="http://creativecommons.org/ns#"
   xmlns:rdf="http://www.w3.org/1999/02/22-rdf-syntax-ns#"
   xmlns:svg="http://www.w3.org/2000/svg"
   xmlns="http://www.w3.org/2000/svg"
   xmlns:sodipodi="http://sodipodi.sourceforge.net/DTD/sodipodi-0.dtd"
   xmlns:inkscape="http://www.inkscape.org/namespaces/inkscape"
   version="1.1"
   id="svg2"
   width="215"
   height="216"
   viewBox="0 0 215 216"
   sodipodi:docname="machinekiticon.svg"
   inkscape:version="0.92.4 (5da689c313, 2019-01-14)">
  <metadata
     id="metadata8">
    <rdf:RDF>
      <cc:Work
         rdf:about="">
        <dc:format>image/svg+xml</dc:format>
        <dc:type
           rdf:resource="http://purl.org/dc/dcmitype/StillImage" />
        <dc:title></dc:title>
      </cc:Work>
    </rdf:RDF>
  </metadata>
  <defs
     id="defs6" />
  <sodipodi:namedview
     pagecolor="#ffffff"
     bordercolor="#666666"
     borderopacity="1"
     objecttolerance="10"
     gridtolerance="10"
     guidetolerance="10"
     inkscape:pageopacity="0"
     inkscape:pageshadow="2"
     inkscape:window-width="3064"
     inkscape:window-height="1596"
     id="namedview4"
     showgrid="false"
     inkscape:zoom="6.2037037"
     inkscape:cx="113.81226"
     inkscape:cy="108"
     inkscape:window-x="0"
     inkscape:window-y="34"
     inkscape:window-maximized="1"
     inkscape:current-layer="layer1" />
  <g
     id="g4592"
     transform="translate(0.64477985,-4.8358213)">
    <path
       style="fill:#f5cf59"
       d="m 94.395227,207.09928 c -4.421231,-2.696 -6.930711,-7.31957 -9.471812,-17.45126 l -2.218542,-8.8456 -4.435342,-1.90121 c -2.439438,-1.04567 -5.185534,-1.89158 -6.102436,-1.87981 -0.916902,0.0118 -4.78492,2.04105 -8.595594,4.50952 -13.247807,8.58162 -18.671514,8.41752 -28.338171,-0.85742 -3.538831,-3.39542 -7.114152,-7.48557 -7.945158,-9.08921 -2.463747,-4.75445 -1.155305,-10.51254 4.690485,-20.64154 4.385425,-7.59862 5.124024,-9.58188 4.602925,-12.35957 C 35.71879,133.9841 33.759128,132.66733 24,130.12912 8.7925102,126.17386 5,121.86989 5,108.56675 5,94.736909 8.6824908,90.523187 24.024864,86.797384 32.97193,84.624643 33.577936,84.310109 35.194566,81 c 0.940154,-1.925 1.730985,-4.342011 1.757402,-5.371136 0.02642,-1.029124 -2.257085,-5.865211 -5.074451,-10.74686 -5.740527,-9.946608 -7.039318,-15.735142 -4.592081,-20.46629 2.148769,-4.154134 12.958296,-14.187799 16.147111,-14.98814 5.139343,-1.289893 10.575746,0.303879 18.721146,5.488418 4.393101,2.796204 8.743198,5.057447 9.666882,5.024983 0.923684,-0.03246 3.665358,-1.044964 6.09261,-2.25 4.348612,-2.158917 4.447815,-2.322061 6.77995,-11.14987 4.224821,-15.99218 7.162503,-18.8616143 19.853915,-19.3926725 14.79794,-0.6192036 20.46593,4.0916255 23.91027,19.8725175 0.90284,4.136522 1.95678,7.973942 2.3421,8.5276 0.38532,0.553658 2.65018,1.866805 5.03303,2.918105 3.78398,1.669472 4.60686,1.735217 6.5,0.519326 15.06964,-9.678621 21.48839,-11.685166 27.46721,-8.586435 4.02729,2.087284 14.99014,13.91475 15.76717,17.010696 1.16557,4.643989 -0.31369,9.581882 -5.63001,18.793466 l -5.14087,8.907581 1.92496,4.694356 1.92497,4.694355 9.77943,2.5 c 15.11044,3.862813 19.62398,8.986287 19.55083,22.19282 -0.0716,12.93622 -4.03712,17.36764 -18.77388,20.97983 l -9.70226,2.37817 -2.38091,4.96393 c -2.32803,4.8537 -2.34113,5.0308 -0.58983,7.97459 12.28977,20.65808 12.35047,24.85164 0.51823,35.80621 -9.39749,8.70042 -13.64477,8.78536 -27.21323,0.54425 -7.86236,-4.77538 -8.45604,-4.97008 -11.95654,-3.92131 -5.85142,1.75313 -7.40102,3.83878 -9.34783,12.58151 -2.14447,9.63039 -3.48548,12.4434 -7.5707,15.88088 -2.91235,2.45058 -3.76728,2.61888 -13.28592,2.61538 -8.217571,-0.003 -10.770128,-0.36769 -13.278043,-1.89698 z"
       id="path4606"
       inkscape:connector-curvature="0" />
    <path
       style="fill:#a1a1a1"
       d="m 94.395227,207.09928 c -4.421231,-2.696 -6.930711,-7.31957 -9.471812,-17.45126 l -2.218542,-8.8456 -4.435342,-1.90121 c -2.439438,-1.04567 -5.185534,-1.89158 -6.102436,-1.87981 -0.916902,0.0118 -4.78492,2.04105 -8.595594,4.50952 -13.247807,8.58162 -18.671514,8.41752 -28.338171,-0.85742 -3.538831,-3.39542 -7.114152,-7.48557 -7.945158,-9.08921 -2.463747,-4.75445 -1.155305,-10.51254 4.690485,-20.64154 4.385425,-7.59862 5.124024,-9.58188 4.602925,-12.35957 C 35.71879,133.9841 33.759128,132.66733 24,130.12912 8.7925102,126.17386 5,121.86989 5,108.56675 5,94.736909 8.6824908,90.523187 24.024864,86.797384 32.97193,84.624643 33.577936,84.310109 35.194566,81 c 0.940154,-1.925 1.730985,-4.342011 1.757402,-5.371136 0.02642,-1.029124 -2.257085,-5.865211 -5.074451,-10.74686 -5.740527,-9.946608 -7.039318,-15.735142 -4.592081,-20.46629 2.148769,-4.154134 12.958296,-14.187799 16.147111,-14.98814 5.139343,-1.289893 10.575746,0.303879 18.721146,5.488418 4.393101,2.796204 8.743198,5.057447 9.666882,5.024983 0.923684,-0.03246 3.665358,-1.044964 6.09261,-2.25 4.348612,-2.158917 4.447815,-2.322061 6.77995,-11.14987 4.224821,-15.99218 7.162503,-18.8616143 19.853915,-19.3926725 14.79794,-0.6192036 20.46593,4.0916255 23.91027,19.8725175 0.90284,4.136522 1.95678,7.973942 2.3421,8.5276 0.38532,0.553658 2.65018,1.866805 5.03303,2.918105 3.78398,1.669472 4.60686,1.735217 6.5,0.519326 15.06964,-9.678621 21.48839,-11.685166 27.46721,-8.586435 4.02729,2.087284 14.99014,13.91475 15.76717,17.010696 1.16557,4.643989 -0.31369,9.581882 -5.63001,18.793466 l -5.14087,8.907581 1.92496,4.694356 1.92497,4.694355 9.77943,2.5 c 15.11044,3.862813 19.62398,8.986287 19.55083,22.19282 -0.0716,12.93622 -4.03712,17.36764 -18.77388,20.97983 l -9.70226,2.37817 -2.38091,4.96393 c -2.32803,4.8537 -2.34113,5.0308 -0.58983,7.97459 12.28977,20.65808 12.35047,24.85164 0.51823,35.80621 -9.39749,8.70042 -13.64477,8.78536 -27.21323,0.54425 -7.86236,-4.77538 -8.45604,-4.97008 -11.95654,-3.92131 -5.85142,1.75313 -7.40102,3.83878 -9.34783,12.58151 -2.14447,9.63039 -3.48548,12.4434 -7.5707,15.88088 -2.91235,2.45058 -3.76728,2.61888 -13.28592,2.61538 -8.217571,-0.003 -10.770128,-0.36769 -13.278043,-1.89698 z m 18.015143,-11.41009 c 1.17798,-0.86135 2.71105,-5.22572 4.47113,-12.72849 2.29841,-9.79749 3.029,-11.59022 5.1485,-12.63358 1.3585,-0.66875 6.16852,-2.88033 10.68894,-4.91463 l 8.21894,-3.69873 10.52002,6.64312 C 157.24391,172.0106 162.5642,175 163.28075,175 c 0.71656,0 3.24234,-1.97621 5.61284,-4.39158 5.07809,-5.17419 5.13156,-4.78399 -2.40296,-17.53454 C 163.47078,147.96345 161,143.06221 161,142.18224 c 0,-1.7069 6.73341,-18.1163 8.00816,-19.51598 0.41763,-0.45856 5.87414,-2.15626 12.12558,-3.77266 6.61958,-1.71159 11.88827,-3.63569 12.61626,-4.60739 1.3773,-1.83838 1.67501,-10.06885 0.43485,-12.02136 -0.43149,-0.67934 -5.92581,-2.395732 -12.20959,-3.814212 -6.28379,-1.418481 -11.92603,-2.994818 -12.53832,-3.502972 -0.61229,-0.508153 -1.68676,-2.84176 -2.38772,-5.185791 -0.70096,-2.344031 -2.34879,-6.384415 -3.66185,-8.978631 C 162.07432,78.189028 161,75.16735 161,74.068404 c 0,-1.098947 2.42191,-5.992171 5.38202,-10.873832 7.53944,-12.433669 7.57389,-12.631302 3.01567,-17.299344 C 167.30572,43.752853 164.87888,42 164.00472,42 c -0.87416,0 -5.98169,2.7479 -11.35006,6.106444 -11.00571,6.88536 -9.78906,6.820386 -23.39769,1.249544 C 118.8856,45.110356 119.50434,45.972067 116.43581,31.5 114.00545,20.037684 113.97481,20 107.08726,20 c -3.47213,0 -6.26572,0.5101 -6.88587,1.257339 -0.573923,0.691536 -2.233176,5.950592 -3.687228,11.686791 -1.454051,5.736199 -3.038033,11.166214 -3.519958,12.0667 -0.481926,0.900487 -2.815273,2.217523 -5.185216,2.926747 -2.369944,0.709224 -6.901457,2.597393 -10.070031,4.195931 -6.64555,3.352663 -5.872644,3.556564 -19.419274,-5.123019 -4.300825,-2.755621 -8.513489,-5.01028 -9.361475,-5.010354 C 47.088054,41.999971 39,50.042483 39,51.90227 c 0,0.729612 2.755856,5.887579 6.124124,11.462149 C 48.492392,68.938988 51.215061,74.4 51.1745,75.5 c -0.08251,2.237726 -6.497201,18.222701 -7.859265,19.584765 -0.480832,0.480832 -5.717088,1.96882 -11.636123,3.30664 -5.919036,1.33782 -11.41826,2.977145 -12.220498,3.642945 -1.63917,1.36039 -2.092425,12.4559 -0.547824,13.41052 0.500935,0.30959 5.95325,1.87346 12.116258,3.47527 6.163007,1.60181 11.648961,3.35587 12.19101,3.89792 0.542049,0.54205 2.547882,4.74223 4.457407,9.33374 1.909525,4.59151 3.671104,8.80449 3.914619,9.36218 0.243516,0.55769 -2.481303,5.95769 -6.055152,12 -3.573849,6.04231 -6.506238,11.64205 -6.51642,12.44386 -0.02423,1.90789 6.962116,9.04216 8.854671,9.04216 0.807008,0 6.055589,-2.925 11.663512,-6.5 5.607923,-3.575 10.71915,-6.5 11.358281,-6.5 0.639132,0 3.736725,1.29891 6.883541,2.88646 3.146816,1.58756 7.660527,3.46674 10.030471,4.17596 2.369943,0.70923 4.70329,2.02626 5.185216,2.92675 0.481925,0.90049 2.054675,6.3338 3.494998,12.07404 1.476679,5.88512 3.332757,10.98194 4.255918,11.68679 2.14916,1.64094 9.38959,1.6032 11.66525,-0.0608 z M 92.892125,146.69185 C 84.723761,143.26442 80.581938,140.46176 75.88901,135.18633 61.255788,118.73676 61.91518,94.954385 77.434783,79.434783 86.857176,70.01239 100.17805,65.564287 112.25,67.809296 c 18.24202,3.392449 31.91797,17.28094 34.93297,35.475844 2.71788,16.40189 -7.29735,34.60596 -23.18011,42.13305 -5.61953,2.66319 -7.79331,3.11882 -16.00286,3.35427 -8.108399,0.23254 -10.321466,-0.0722 -15.107875,-2.08061 z"
       id="path4604"
       inkscape:connector-curvature="0" />
    <path
       style="fill:#8a7632"
       d="m 94.831892,206.33987 c -3.669444,-2.34313 -6.514429,-7.77868 -8.848943,-16.90654 -1.085569,-4.24453 -2.439997,-8.27911 -3.009841,-8.96573 -0.569843,-0.68662 -3.323967,-2.23262 -6.120276,-3.43556 l -5.084197,-2.18717 -5.134318,3.241 c -10.51317,6.63635 -13.646124,8.06731 -18.034416,8.23715 -5.484955,0.21227 -10.929798,-3.30865 -17.410255,-11.25839 -4.116589,-5.04993 -4.380196,-5.72974 -3.951559,-10.19065 0.338265,-3.52039 1.969166,-7.30994 6.189814,-14.38263 l 5.730539,-9.60287 -2.32922,-4.63572 C 34.509477,131.63589 34.463549,131.60752 25.541105,129.27857 10.4219,125.33213 6.8530909,122.0566 6.1815305,111.50994 5.1651616,95.548172 9.5560253,90.687547 28.346449,86.973688 c 5.63857,-1.114443 5.920435,-1.321189 7.927256,-5.814609 1.144444,-2.562493 2.036,-5.353772 1.981235,-6.202841 C 38.200176,74.107169 35.802527,69.475657 32.926832,64.663991 29.075881,58.220507 27.57335,54.61517 27.224072,50.980165 l -0.474224,-4.935342 7.277946,-7.505777 C 44.458658,27.78165 48.685155,27.473971 62.560397,36.461937 c 3.816782,2.472397 7.714272,4.504896 8.66109,4.516665 0.946817,0.01177 4.123693,-1.040972 7.059723,-2.339424 5.249112,-2.321406 5.35999,-2.459145 6.641182,-8.25 3.527454,-15.943734 7.053972,-20.867487 15.721448,-21.950417 2.94589,-0.3680642 7.94366,-0.3463827 11.10616,0.048181 4.92048,0.6138953 6.27913,1.2733117 9.41778,4.570898 3.11762,3.275493 4.00095,5.295334 5.88899,13.465852 2.37216,10.265581 2.95026,11.042182 10.06665,13.523261 3.51494,1.225461 3.87419,1.11057 12,-3.837754 13.59408,-8.278299 17.50093,-8.228915 26.75442,0.338185 10.80058,9.999434 11.25735,14.263686 3.06152,28.58148 C 176.22271,69.87474 174,74.505167 174,75.418702 c 0,1.268366 3.28722,8.915795 4.42927,10.304315 0.10089,0.122659 3.53307,0.926188 7.62708,1.785619 9.73663,2.043955 15.3936,4.865293 17.90594,8.93035 1.67579,2.71149 2.03771,4.983854 2.03771,12.794194 0,8.12577 -0.30244,9.88159 -2.09453,12.15986 -2.83657,3.60612 -7.88173,5.99628 -17.30243,8.1971 -6.77985,1.58387 -8.15869,2.27382 -9.74709,4.87735 -3.71213,6.08448 -3.44655,8.42961 1.97628,17.45072 5.58983,9.29892 6.79775,13.64292 5.16732,18.58316 -1.44957,4.39225 -12.7338,14.99548 -16.83055,15.81483 -4.29081,0.85816 -10.55592,-1.27628 -18.07404,-6.15759 -7.36943,-4.78477 -9.02475,-4.99391 -15.10604,-1.90861 -4.42143,2.24318 -4.44118,2.27727 -6.52055,11.25 -2.34816,10.13262 -3.16373,11.95032 -6.95457,15.5 -2.43487,2.27997 -3.56513,2.52392 -12.84183,2.7718 -8.2023,0.21916 -10.688614,-0.0581 -12.840078,-1.43193 z m 17.578478,-10.65068 c 1.17798,-0.86135 2.71105,-5.22572 4.47113,-12.72849 2.29841,-9.79749 3.029,-11.59022 5.1485,-12.63358 1.3585,-0.66875 6.16852,-2.88033 10.68894,-4.91463 l 8.21894,-3.69873 10.52002,6.64312 C 157.24391,172.0106 162.5642,175 163.28075,175 c 0.71656,0 3.24234,-1.97621 5.61284,-4.39158 5.07809,-5.17419 5.13156,-4.78399 -2.40296,-17.53454 C 163.47078,147.96345 161,143.06221 161,142.18224 c 0,-1.7069 6.73341,-18.1163 8.00816,-19.51598 0.41763,-0.45856 5.87414,-2.15626 12.12558,-3.77266 6.61958,-1.71159 11.88827,-3.63569 12.61626,-4.60739 1.3773,-1.83838 1.67501,-10.06885 0.43485,-12.02136 -0.43149,-0.67934 -5.92581,-2.395732 -12.20959,-3.814212 -6.28379,-1.418481 -11.92603,-2.994818 -12.53832,-3.502972 -0.61229,-0.508153 -1.68676,-2.84176 -2.38772,-5.185791 -0.70096,-2.344031 -2.34879,-6.384415 -3.66185,-8.978631 C 162.07432,78.189028 161,75.16735 161,74.068404 c 0,-1.098947 2.42191,-5.992171 5.38202,-10.873832 7.53944,-12.433669 7.57389,-12.631302 3.01567,-17.299344 C 167.30572,43.752853 164.87888,42 164.00472,42 c -0.87416,0 -5.98169,2.7479 -11.35006,6.106444 -11.00571,6.88536 -9.78906,6.820386 -23.39769,1.249544 C 118.8856,45.110356 119.50434,45.972067 116.43581,31.5 114.00545,20.037684 113.97481,20 107.08726,20 c -3.47213,0 -6.26572,0.5101 -6.88587,1.257339 -0.573923,0.691536 -2.233176,5.950592 -3.687228,11.686791 -1.454051,5.736199 -3.038033,11.166214 -3.519958,12.0667 -0.481926,0.900487 -2.815273,2.217523 -5.185216,2.926747 -2.369944,0.709224 -6.901457,2.597393 -10.070031,4.195931 -6.64555,3.352663 -5.872644,3.556564 -19.419274,-5.123019 -4.300825,-2.755621 -8.513489,-5.01028 -9.361475,-5.010354 C 47.088054,41.999971 39,50.042483 39,51.90227 c 0,0.729612 2.755856,5.887579 6.124124,11.462149 C 48.492392,68.938988 51.215061,74.4 51.1745,75.5 c -0.08251,2.237726 -6.497201,18.222701 -7.859265,19.584765 -0.480832,0.480832 -5.717088,1.96882 -11.636123,3.30664 -5.919036,1.33782 -11.41826,2.977145 -12.220498,3.642945 -1.63917,1.36039 -2.092425,12.4559 -0.547824,13.41052 0.500935,0.30959 5.95325,1.87346 12.116258,3.47527 6.163007,1.60181 11.648961,3.35587 12.19101,3.89792 0.542049,0.54205 2.547882,4.74223 4.457407,9.33374 1.909525,4.59151 3.671104,8.80449 3.914619,9.36218 0.243516,0.55769 -2.481303,5.95769 -6.055152,12 -3.573849,6.04231 -6.506238,11.64205 -6.51642,12.44386 -0.02423,1.90789 6.962116,9.04216 8.854671,9.04216 0.807008,0 6.055589,-2.925 11.663512,-6.5 5.607923,-3.575 10.71915,-6.5 11.358281,-6.5 0.639132,0 3.736725,1.29891 6.883541,2.88646 3.146816,1.58756 7.660527,3.46674 10.030471,4.17596 2.369943,0.70923 4.70329,2.02626 5.185216,2.92675 0.481925,0.90049 2.054675,6.3338 3.494998,12.07404 1.476679,5.88512 3.332757,10.98194 4.255918,11.68679 2.14916,1.64094 9.38959,1.6032 11.66525,-0.0608 z M 92.892125,146.69185 C 84.723761,143.26442 80.581938,140.46176 75.88901,135.18633 61.255788,118.73676 61.91518,94.954385 77.434783,79.434783 86.857176,70.01239 100.17805,65.564287 112.25,67.809296 c 18.24202,3.392449 31.91797,17.28094 34.93297,35.475844 2.71788,16.40189 -7.29735,34.60596 -23.18011,42.13305 -5.61953,2.66319 -7.79331,3.11882 -16.00286,3.35427 -8.108399,0.23254 -10.321466,-0.0722 -15.107875,-2.08061 z"
       id="path4602"
       inkscape:connector-curvature="0" />
    <path
       style="fill:#5f5f5f"
       d="m 94.831892,206.33987 c -3.669444,-2.34313 -6.514429,-7.77868 -8.848943,-16.90654 -1.085569,-4.24453 -2.439997,-8.27911 -3.009841,-8.96573 -0.569843,-0.68662 -3.323967,-2.23262 -6.120276,-3.43556 l -5.084197,-2.18717 -5.134318,3.241 c -10.51317,6.63635 -13.646124,8.06731 -18.034416,8.23715 -5.484955,0.21227 -10.929798,-3.30865 -17.410255,-11.25839 -4.116589,-5.04993 -4.380196,-5.72974 -3.951559,-10.19065 0.338265,-3.52039 1.969166,-7.30994 6.189814,-14.38263 l 5.730539,-9.60287 -2.32922,-4.63572 C 34.509477,131.63589 34.463549,131.60752 25.541105,129.27857 10.4219,125.33213 6.8530909,122.0566 6.1815305,111.50994 5.1651616,95.548172 9.5560253,90.687547 28.346449,86.973688 c 5.63857,-1.114443 5.920435,-1.321189 7.927256,-5.814609 1.144444,-2.562493 2.036,-5.353772 1.981235,-6.202841 C 38.200176,74.107169 35.802527,69.475657 32.926832,64.663991 29.075881,58.220507 27.57335,54.61517 27.224072,50.980165 l -0.474224,-4.935342 7.277946,-7.505777 C 44.458658,27.78165 48.685155,27.473971 62.560397,36.461937 c 3.816782,2.472397 7.714272,4.504896 8.66109,4.516665 0.946817,0.01177 4.123693,-1.040972 7.059723,-2.339424 5.249112,-2.321406 5.35999,-2.459145 6.641182,-8.25 3.527454,-15.943734 7.053972,-20.867487 15.721448,-21.950417 2.94589,-0.3680642 7.94366,-0.3463827 11.10616,0.048181 4.92048,0.6138953 6.27913,1.2733117 9.41778,4.570898 3.11762,3.275493 4.00095,5.295334 5.88899,13.465852 2.37216,10.265581 2.95026,11.042182 10.06665,13.523261 3.51494,1.225461 3.87419,1.11057 12,-3.837754 13.59408,-8.278299 17.50093,-8.228915 26.75442,0.338185 10.80058,9.999434 11.25735,14.263686 3.06152,28.58148 C 176.22271,69.87474 174,74.505167 174,75.418702 c 0,1.268366 3.28722,8.915795 4.42927,10.304315 0.10089,0.122659 3.53307,0.926188 7.62708,1.785619 9.73663,2.043955 15.3936,4.865293 17.90594,8.93035 1.67579,2.71149 2.03771,4.983854 2.03771,12.794194 0,8.12577 -0.30244,9.88159 -2.09453,12.15986 -2.83657,3.60612 -7.88173,5.99628 -17.30243,8.1971 -6.77985,1.58387 -8.15869,2.27382 -9.74709,4.87735 -3.71213,6.08448 -3.44655,8.42961 1.97628,17.45072 5.58983,9.29892 6.79775,13.64292 5.16732,18.58316 -1.44957,4.39225 -12.7338,14.99548 -16.83055,15.81483 -4.29081,0.85816 -10.55592,-1.27628 -18.07404,-6.15759 -7.36943,-4.78477 -9.02475,-4.99391 -15.10604,-1.90861 -4.42143,2.24318 -4.44118,2.27727 -6.52055,11.25 -2.34816,10.13262 -3.16373,11.95032 -6.95457,15.5 -2.43487,2.27997 -3.56513,2.52392 -12.84183,2.7718 -8.2023,0.21916 -10.688614,-0.0581 -12.840078,-1.43193 z m 19.647518,-10.6426 c 0.64883,-0.88733 2.21676,-6.61937 3.48429,-12.73786 1.90429,-9.19223 2.67211,-11.27323 4.42045,-11.98064 1.16372,-0.47086 5.84037,-2.48936 10.39255,-4.48555 l 8.27671,-3.62943 10.30306,6.5681 c 5.66668,3.61246 10.95908,6.56811 11.76089,6.56811 0.8018,0 3.62464,-2.19989 6.27296,-4.88865 5.69812,-5.7851 5.72333,-5.55531 -2.0083,-18.30592 C 164.42191,147.92377 162,143.39176 162,142.73431 c 0,-0.65745 1.65233,-5.37011 3.67184,-10.47257 3.59253,-9.0768 3.75994,-9.29997 7.75,-10.33159 15.94517,-4.12258 19.85299,-5.34784 21.13037,-6.62522 1.81753,-1.81753 1.94043,-11.24894 0.17799,-13.65922 -0.81701,-1.11734 -5.18115,-2.620597 -12.23895,-4.2158 C 176.45821,96.066323 171.0046,94.399263 170.37212,93.725331 169.01107,92.275094 162,75.148729 162,73.274259 c 0,-0.712597 2.41947,-5.228322 5.3766,-10.034945 7.65012,-12.434754 7.67265,-12.594507 2.51699,-17.847736 C 167.52309,42.97621 164.6956,41 163.61029,41 c -1.08531,0 -6.25011,2.7365 -11.47733,6.08111 -6.39216,4.089997 -10.17999,5.917501 -11.56849,5.581428 -3.08518,-0.746736 -18.64669,-7.344758 -19.62128,-8.319349 -0.46546,-0.465458 -1.81644,-5.34559 -3.00218,-10.844738 C 114.94196,19.589624 114.47678,19 106.50263,19 c -6.03558,0 -6.540443,0.177196 -7.835203,2.75 -0.761164,1.5125 -2.406584,7.025 -3.656491,12.25 -1.249906,5.225 -2.616324,9.880132 -3.036484,10.344738 -0.884798,0.978394 -16.413985,7.564696 -19.671445,8.343133 C 70.759249,53.056784 67.203862,51.397252 60.34534,47.106444 54.976969,43.7479 49.646809,41 48.500541,41 45.875525,41 37.997148,48.912732 38.008441,51.537852 38.013083,52.617033 40.709285,58 44,63.5 c 3.290715,5.5 5.989336,10.675 5.996936,11.5 0.01828,1.984589 -5.986215,17.166774 -7.39488,18.697726 -0.606131,0.65875 -6.016492,2.355001 -12.023026,3.769448 -6.006533,1.414447 -11.519033,3.068066 -12.25,3.674716 -1.81683,1.50784 -1.803043,13.21982 0.01734,14.73061 0.740503,0.61456 6.419119,2.44828 12.619146,4.07492 6.200027,1.62665 11.415446,3.10021 11.589821,3.27458 C 43.507886,124.17455 50,140.71077 50,142.18448 c 0,0.95986 -2.467147,5.81389 -5.48255,10.78674 -7.642742,12.60402 -7.723931,13.22376 -2.437975,18.60976 2.385318,2.43046 5.065421,4.41902 5.955786,4.41902 0.890364,0 6.17297,-2.925 11.739124,-6.5 5.566154,-3.575 10.5478,-6.5 11.070324,-6.5 0.522524,0 3.583724,1.2915 6.802667,2.87 3.218943,1.57851 7.504128,3.40153 9.522632,4.05116 4.642559,1.49415 5.284476,2.3469 6.834207,9.07884 2.594828,11.27179 5.02013,17.85675 6.764425,18.36617 3.59827,1.05087 12.51573,-0.0346 13.71077,-1.6689 z M 95.5,146.59785 C 80.391869,141.80724 69.685862,129.71794 66.79755,114.18683 62.064189,88.734471 86.658155,64.049996 112.04642,68.771438 c 17.3958,3.235089 29.99103,15.300076 33.48971,32.079852 4.11765,19.74834 -7.20254,38.84672 -26.96427,45.49162 -5.81191,1.95426 -17.31198,2.08134 -23.07186,0.25494 z"
       id="path4600"
       inkscape:connector-curvature="0" />
    <path
       style="fill:#007a7a"
       d="m 94.606959,204.90547 c -3.491653,-2.74653 -5.930511,-7.76773 -8.057763,-16.58957 -0.952784,-3.95125 -2.253629,-7.81536 -2.890765,-8.58691 -0.637137,-0.77154 -3.605683,-2.38648 -6.596769,-3.58875 l -5.438337,-2.18594 -9.061663,5.42931 c -4.983914,2.98612 -10.477546,5.72192 -12.208071,6.07955 -4.739218,0.97942 -9.096716,-1.40281 -16.226807,-8.87114 -6.342363,-6.64323 -6.37093,-6.69935 -5.900852,-11.59154 0.34734,-3.61484 1.860333,-7.23836 5.716386,-13.69038 4.449467,-7.44493 5.158102,-9.30386 4.676958,-12.2688 -1.012058,-6.23658 -3.411031,-8.23608 -12.694137,-10.58031 C 9.2976006,124.26209 6.7475734,121.38381 7.2028931,107.32871 7.4680404,99.143981 7.7689238,97.870162 10,95.486893 c 3.549084,-3.791185 5.366371,-4.606755 15.5,-6.956157 l 9,-2.086578 2.20878,-4.472079 c 1.21483,-2.459644 2.22733,-5.450264 2.25,-6.645824 0.02267,-1.19556 -2.276663,-6.052071 -5.109632,-10.792247 -3.785877,-6.3346 -5.27681,-9.929371 -5.626165,-13.56518 L 27.74767,46.02215 34.67898,38.910201 C 40.836781,32.59192 42.113826,31.741496 46.122393,31.289672 50.971784,30.743075 55.773409,32.68948 65,38.941969 c 5.445617,3.690275 6.242295,3.725314 13.339307,0.586678 5.434519,-2.403402 5.630978,-2.630239 7.145181,-8.25 3.701549,-13.737799 4.606134,-15.991286 7.552133,-18.813732 2.727683,-2.6132861 3.881885,-2.9724315 10.651209,-3.3142667 13.86132,-0.6999651 18.81402,2.6773717 21.85877,14.9058907 3.65271,14.670241 3.01375,13.494101 8.58973,15.811373 C 136.95804,41.04056 139.68583,42 140.19809,42 c 0.51226,0 4.7204,-2.315398 9.35141,-5.145329 6.143,-3.753876 9.71584,-5.269839 13.21169,-5.605746 4.42189,-0.424888 5.19666,-0.140282 10.03997,3.688135 2.88657,2.281704 6.62766,6.04179 8.31352,8.355747 2.68644,3.687314 2.99076,4.760927 2.46271,8.688361 -0.37629,2.798676 -2.47508,7.614402 -5.58994,12.826255 -2.7431,4.589798 -4.98745,9.014851 -4.98745,9.83345 0,0.8186 0.94709,3.689927 2.10464,6.380727 2.26147,5.256932 2.807,5.572127 13.89536,8.02842 7.12069,1.577376 10.1634,3.167025 13.38088,6.990788 2.43159,2.889773 2.61912,3.80723 2.61912,12.813412 0,10.99612 -0.86913,13.03865 -6.81608,16.0184 -2.02616,1.01522 -7.05892,2.64593 -11.18392,3.62381 -4.125,0.97787 -8.20474,2.13776 -9.06608,2.57752 -0.86134,0.43975 -2.40322,3.26239 -3.4264,6.27252 l -1.86032,5.47297 5.17972,8.97489 c 3.20844,5.55926 5.41847,10.71687 5.80709,13.55213 0.62687,4.57349 0.62183,4.58299 -6.13421,11.58104 -10.46126,10.83598 -14.12675,11.18672 -27.80617,2.66072 C 145.64481,177.0647 141.41461,175 140.29319,175 c -1.12143,0 -4.11746,0.91942 -6.65785,2.04316 -3.40064,1.50426 -4.78935,2.7571 -5.26516,4.75 C 122.6539,205.73564 121.54108,207 106.18452,207 c -7.534715,0 -9.32702,-0.32425 -11.577561,-2.09453 z m 19.872451,-9.2082 c 0.64883,-0.88733 2.21676,-6.61937 3.48429,-12.73786 1.90429,-9.19223 2.67211,-11.27323 4.42045,-11.98064 1.16372,-0.47086 5.84037,-2.48936 10.39255,-4.48555 l 8.27671,-3.62943 10.30306,6.5681 c 5.66668,3.61246 10.95908,6.56811 11.76089,6.56811 0.8018,0 3.62464,-2.19989 6.27296,-4.88865 5.69812,-5.7851 5.72333,-5.55531 -2.0083,-18.30592 C 164.42191,147.92377 162,143.39176 162,142.73431 c 0,-0.65745 1.65233,-5.37011 3.67184,-10.47257 3.59253,-9.0768 3.75994,-9.29997 7.75,-10.33159 15.94517,-4.12258 19.85299,-5.34784 21.13037,-6.62522 1.81753,-1.81753 1.94043,-11.24894 0.17799,-13.65922 -0.81701,-1.11734 -5.18115,-2.620597 -12.23895,-4.2158 C 176.45821,96.066323 171.0046,94.399263 170.37212,93.725331 169.01107,92.275094 162,75.148729 162,73.274259 c 0,-0.712597 2.41947,-5.228322 5.3766,-10.034945 7.65012,-12.434754 7.67265,-12.594507 2.51699,-17.847736 C 167.52309,42.97621 164.6956,41 163.61029,41 c -1.08531,0 -6.25011,2.7365 -11.47733,6.08111 -6.39216,4.089997 -10.17999,5.917501 -11.56849,5.581428 -3.08518,-0.746736 -18.64669,-7.344758 -19.62128,-8.319349 -0.46546,-0.465458 -1.81644,-5.34559 -3.00218,-10.844738 C 114.94196,19.589624 114.47678,19 106.50263,19 c -6.03558,0 -6.540443,0.177196 -7.835203,2.75 -0.761164,1.5125 -2.406584,7.025 -3.656491,12.25 -1.249906,5.225 -2.616324,9.880132 -3.036484,10.344738 -0.884798,0.978394 -16.413985,7.564696 -19.671445,8.343133 C 70.759249,53.056784 67.203862,51.397252 60.34534,47.106444 54.976969,43.7479 49.646809,41 48.500541,41 45.875525,41 37.997148,48.912732 38.008441,51.537852 38.013083,52.617033 40.709285,58 44,63.5 c 3.290715,5.5 5.989336,10.675 5.996936,11.5 0.01828,1.984589 -5.986215,17.166774 -7.39488,18.697726 -0.606131,0.65875 -6.016492,2.355001 -12.023026,3.769448 -6.006533,1.414447 -11.519033,3.068066 -12.25,3.674716 -1.81683,1.50784 -1.803043,13.21982 0.01734,14.73061 0.740503,0.61456 6.419119,2.44828 12.619146,4.07492 6.200027,1.62665 11.415446,3.10021 11.589821,3.27458 C 43.507886,124.17455 50,140.71077 50,142.18448 c 0,0.95986 -2.467147,5.81389 -5.48255,10.78674 -7.642742,12.60402 -7.723931,13.22376 -2.437975,18.60976 2.385318,2.43046 5.065421,4.41902 5.955786,4.41902 0.890364,0 6.17297,-2.925 11.739124,-6.5 5.566154,-3.575 10.5478,-6.5 11.070324,-6.5 0.522524,0 3.583724,1.2915 6.802667,2.87 3.218943,1.57851 7.504128,3.40153 9.522632,4.05116 4.642559,1.49415 5.284476,2.3469 6.834207,9.07884 2.594828,11.27179 5.02013,17.85675 6.764425,18.36617 3.59827,1.05087 12.51573,-0.0346 13.71077,-1.6689 z M 95.5,146.59785 C 80.391869,141.80724 69.685862,129.71794 66.79755,114.18683 62.064189,88.734471 86.658155,64.049996 112.04642,68.771438 c 17.3958,3.235089 29.99103,15.300076 33.48971,32.079852 4.11765,19.74834 -7.20254,38.84672 -26.96427,45.49162 -5.81191,1.95426 -17.31198,2.08134 -23.07186,0.25494 z"
       id="path4598"
       inkscape:connector-curvature="0" />
    <path
       style="fill:#645625"
       d="m 94.606959,204.90547 c -3.491653,-2.74653 -5.930511,-7.76773 -8.057763,-16.58957 -0.952784,-3.95125 -2.253629,-7.81536 -2.890765,-8.58691 -0.637137,-0.77154 -3.605683,-2.38648 -6.596769,-3.58875 l -5.438337,-2.18594 -9.061663,5.42931 c -4.983914,2.98612 -10.477546,5.72192 -12.208071,6.07955 -4.739218,0.97942 -9.096716,-1.40281 -16.226807,-8.87114 -6.342363,-6.64323 -6.37093,-6.69935 -5.900852,-11.59154 0.34734,-3.61484 1.860333,-7.23836 5.716386,-13.69038 4.449467,-7.44493 5.158102,-9.30386 4.676958,-12.2688 -1.012058,-6.23658 -3.411031,-8.23608 -12.694137,-10.58031 C 9.2976006,124.26209 6.7475734,121.38381 7.2028931,107.32871 7.4680404,99.143981 7.7689238,97.870162 10,95.486893 c 3.549084,-3.791185 5.366371,-4.606755 15.5,-6.956157 l 9,-2.086578 2.20878,-4.472079 c 1.21483,-2.459644 2.22733,-5.450264 2.25,-6.645824 0.02267,-1.19556 -2.276663,-6.052071 -5.109632,-10.792247 -3.785877,-6.3346 -5.27681,-9.929371 -5.626165,-13.56518 L 27.74767,46.02215 34.67898,38.910201 C 40.836781,32.59192 42.113826,31.741496 46.122393,31.289672 50.971784,30.743075 55.773409,32.68948 65,38.941969 c 5.445617,3.690275 6.242295,3.725314 13.339307,0.586678 5.434519,-2.403402 5.630978,-2.630239 7.145181,-8.25 3.701549,-13.737799 4.606134,-15.991286 7.552133,-18.813732 2.727683,-2.6132861 3.881885,-2.9724315 10.651209,-3.3142667 13.86132,-0.6999651 18.81402,2.6773717 21.85877,14.9058907 3.65271,14.670241 3.01375,13.494101 8.58973,15.811373 C 136.95804,41.04056 139.68583,42 140.19809,42 c 0.51226,0 4.7204,-2.315398 9.35141,-5.145329 6.143,-3.753876 9.71584,-5.269839 13.21169,-5.605746 4.42189,-0.424888 5.19666,-0.140282 10.03997,3.688135 2.88657,2.281704 6.62766,6.04179 8.31352,8.355747 2.68644,3.687314 2.99076,4.760927 2.46271,8.688361 -0.37629,2.798676 -2.47508,7.614402 -5.58994,12.826255 -2.7431,4.589798 -4.98745,9.014851 -4.98745,9.83345 0,0.8186 0.94709,3.689927 2.10464,6.380727 2.26147,5.256932 2.807,5.572127 13.89536,8.02842 7.12069,1.577376 10.1634,3.167025 13.38088,6.990788 2.43159,2.889773 2.61912,3.80723 2.61912,12.813412 0,10.99612 -0.86913,13.03865 -6.81608,16.0184 -2.02616,1.01522 -7.05892,2.64593 -11.18392,3.62381 -4.125,0.97787 -8.20474,2.13776 -9.06608,2.57752 -0.86134,0.43975 -2.40322,3.26239 -3.4264,6.27252 l -1.86032,5.47297 5.17972,8.97489 c 3.20844,5.55926 5.41847,10.71687 5.80709,13.55213 0.62687,4.57349 0.62183,4.58299 -6.13421,11.58104 -10.46126,10.83598 -14.12675,11.18672 -27.80617,2.66072 C 145.64481,177.0647 141.41461,175 140.29319,175 c -1.12143,0 -4.11746,0.91942 -6.65785,2.04316 -3.40064,1.50426 -4.78935,2.7571 -5.26516,4.75 C 122.6539,205.73564 121.54108,207 106.18452,207 c -7.534715,0 -9.32702,-0.32425 -11.577561,-2.09453 z m 19.872451,-9.2082 c 0.64883,-0.88733 2.21676,-6.61937 3.48429,-12.73786 1.90429,-9.19223 2.67211,-11.27323 4.42045,-11.98064 1.16372,-0.47086 5.84037,-2.48936 10.39255,-4.48555 l 8.27671,-3.62943 10.30306,6.5681 c 5.66668,3.61246 10.95908,6.56811 11.76089,6.56811 0.8018,0 3.62464,-2.19989 6.27296,-4.88865 5.69812,-5.7851 5.72333,-5.55531 -2.0083,-18.30592 C 164.42191,147.92377 162,143.39176 162,142.73431 c 0,-0.65745 1.65233,-5.37011 3.67184,-10.47257 3.59253,-9.0768 3.75994,-9.29997 7.75,-10.33159 15.94517,-4.12258 19.85299,-5.34784 21.13037,-6.62522 1.81753,-1.81753 1.94043,-11.24894 0.17799,-13.65922 -0.81701,-1.11734 -5.18115,-2.620597 -12.23895,-4.2158 C 176.45821,96.066323 171.0046,94.399263 170.37212,93.725331 169.01107,92.275094 162,75.148729 162,73.274259 c 0,-0.712597 2.41947,-5.228322 5.3766,-10.034945 7.65012,-12.434754 7.67265,-12.594507 2.51699,-17.847736 C 167.52309,42.97621 164.6956,41 163.61029,41 c -1.08531,0 -6.25011,2.7365 -11.47733,6.08111 -6.39216,4.089997 -10.17999,5.917501 -11.56849,5.581428 -3.08518,-0.746736 -18.64669,-7.344758 -19.62128,-8.319349 -0.46546,-0.465458 -1.81644,-5.34559 -3.00218,-10.844738 C 114.94196,19.589624 114.47678,19 106.50263,19 c -6.03558,0 -6.540443,0.177196 -7.835203,2.75 -0.761164,1.5125 -2.406584,7.025 -3.656491,12.25 -1.249906,5.225 -2.616324,9.880132 -3.036484,10.344738 -0.884798,0.978394 -16.413985,7.564696 -19.671445,8.343133 C 70.759249,53.056784 67.203862,51.397252 60.34534,47.106444 54.976969,43.7479 49.646809,41 48.500541,41 45.875525,41 37.997148,48.912732 38.008441,51.537852 38.013083,52.617033 40.709285,58 44,63.5 c 3.290715,5.5 5.989336,10.675 5.996936,11.5 0.01828,1.984589 -5.986215,17.166774 -7.39488,18.697726 -0.606131,0.65875 -6.016492,2.355001 -12.023026,3.769448 -6.006533,1.414447 -11.519033,3.068066 -12.25,3.674716 -1.81683,1.50784 -1.803043,13.21982 0.01734,14.73061 0.740503,0.61456 6.419119,2.44828 12.619146,4.07492 6.200027,1.62665 11.415446,3.10021 11.589821,3.27458 C 43.507886,124.17455 50,140.71077 50,142.18448 c 0,0.95986 -2.467147,5.81389 -5.48255,10.78674 -7.642742,12.60402 -7.723931,13.22376 -2.437975,18.60976 2.385318,2.43046 5.065421,4.41902 5.955786,4.41902 0.890364,0 6.17297,-2.925 11.739124,-6.5 5.566154,-3.575 10.5478,-6.5 11.070324,-6.5 0.522524,0 3.583724,1.2915 6.802667,2.87 3.218943,1.57851 7.504128,3.40153 9.522632,4.05116 4.642559,1.49415 5.284476,2.3469 6.834207,9.07884 2.594828,11.27179 5.02013,17.85675 6.764425,18.36617 3.59827,1.05087 12.51573,-0.0346 13.71077,-1.6689 z M 95.5,146.59785 C 80.391869,141.80724 69.685862,129.71794 66.79755,114.18683 62.064189,88.734471 86.658155,64.049996 112.04642,68.771438 c 17.3958,3.235089 29.99103,15.300076 33.48971,32.079852 4.11765,19.74834 -7.20254,38.84672 -26.96427,45.49162 -5.81191,1.95426 -17.31198,2.08134 -23.07186,0.25494 z M 116.29183,135.992 c 6.99751,-2.6181 13.12626,-7.95494 16.48412,-14.35415 2.30842,-4.39924 2.69801,-6.35979 2.71002,-13.63785 0.0125,-7.56713 -0.31153,-9.087768 -2.95235,-13.855553 C 128.90844,87.599478 124.24818,83.620158 117,80.880544 98.046468,73.716625 77,88.276503 77,108.55241 c 0,20.59755 20.086689,34.62516 39.29183,27.43959 z"
       id="path4596"
       inkscape:connector-curvature="0" />
    <path
       style="fill:#090907"
       d="M 95.841427,205.52519 C 91.978117,203.35526 89.446528,198.62637 86.994734,189 c -1.190701,-4.675 -2.594301,-9.01741 -3.119111,-9.6498 -0.52481,-0.63239 -3.44673,-2.16145 -6.493155,-3.3979 -6.311821,-2.56178 -6.051036,-2.6334 -18.313741,5.02906 C 53.902001,184.20984 51.701182,185 47.875727,185 43.474264,185 42.65138,184.5717 36.999405,179.33896 26.002023,169.15733 25.756137,166.30887 34.546141,150.91922 l 5.637794,-9.87073 -1.722406,-4.51005 C 37.514205,134.05791 36.23532,131.63347 35.619561,131.1508 35.003803,130.66813 31.125,129.46359 27,128.47403 17.175379,126.11718 13.32368,124.4523 10.40178,121.29952 8.191825,118.91494 8,117.89178 8,108.48884 8,94.167937 9.7177943,92.382332 27.405757,88.317019 L 35.311514,86.5 l 2.462206,-5.728732 2.462206,-5.728732 -5.66379,-9.916239 c -8.686075,-15.207696 -8.510992,-18.165218 1.643919,-27.76931 8.675197,-8.20464 13.015922,-8.072456 26.934698,0.820217 l 7.650752,4.888048 6.626116,-2.721143 c 6.549779,-2.689793 6.643087,-2.782334 8.099247,-8.032626 0.810223,-2.921316 2.180042,-7.853009 3.044044,-10.959318 0.930639,-3.345889 2.733397,-6.81032 4.423077,-8.5 C 95.753372,10.092781 96.174436,10 105.93776,10 c 10.0426,0 10.10927,0.01619 13.72813,3.332619 3.18328,2.917257 3.96374,4.630892 6.26199,13.749214 l 2.62548,10.416596 4.47332,2.19176 c 2.46033,1.205468 5.45563,2.218322 6.65624,2.250786 1.2006,0.03246 5.83727,-2.160528 10.3037,-4.873314 4.46643,-2.712787 9.44506,-5.223199 11.06362,-5.578695 4.84597,-1.064353 9.32169,1.187098 15.82673,7.96143 8.4073,8.75533 8.46748,11.651366 0.53278,25.640888 l -5.44008,9.591284 2.47826,5.603781 c 2.82162,6.380174 3.60873,6.9268 12.55207,8.717088 14.56928,2.916494 17.99053,6.784564 17.99626,20.346563 0.004,8.69142 -0.0557,8.90948 -3.31589,12.16963 -3.19866,3.19866 -5.11721,3.96537 -19.18037,7.665 -4.70277,1.23718 -5.16752,1.66112 -7.81804,7.1315 l -2.81805,5.81613 5.49295,9.68387 c 7.77941,13.71481 7.83301,16.98812 0.40677,24.84028 -9.17422,9.70038 -14.47794,10.72829 -24.32246,4.71391 -13.91323,-8.50012 -11.93829,-7.82901 -17.22932,-5.85475 -2.59152,0.96698 -5.44959,2.39627 -6.35127,3.1762 -0.90167,0.77993 -2.63453,5.72444 -3.85078,10.9878 -1.78675,7.73222 -2.84907,10.26587 -5.53249,13.19509 -3.31738,3.62127 -3.33158,3.62563 -12.64921,3.88457 -6.81334,0.18934 -10.044823,-0.14334 -11.986673,-1.23404 z m 18.936263,-8.70288 c 0.64774,-0.64774 2.39547,-6.49367 3.88385,-12.99097 2.24837,-9.81487 3.05568,-11.9141 4.77231,-12.40933 1.13638,-0.32784 5.52415,-2.18902 9.75059,-4.13597 l 7.68443,-3.53989 10.56544,6.73536 c 12.25244,7.81082 13.15694,7.85534 19.51246,0.96041 5.13602,-5.57193 5.07362,-6.03968 -2.46422,-18.4707 C 165.46715,147.99837 163,143.26023 163,142.44202 c 0,-1.62227 5.8276,-16.23451 7.21305,-18.08611 0.47083,-0.62925 5.76696,-2.36243 11.76918,-3.8515 6.00222,-1.48907 11.68155,-3.26929 12.62075,-3.95605 2.22985,-1.63051 2.99137,-11.07431 1.17312,-14.54836 -1.11234,-2.125312 -3.09019,-2.949625 -13.19664,-5.5 l -11.88819,-3 -3.84564,-9.464816 C 164.73054,78.829534 163,74.124126 163,73.578721 c 0,-0.545406 2.4452,-5.089148 5.43377,-10.097205 C 176.12318,50.59609 176.203,49.939842 170.74464,44.481478 167.90115,41.63799 165.37721,40 163.83925,40 c -1.33316,0 -6.81435,2.746734 -12.18045,6.103853 -5.9276,3.708412 -10.42414,5.892551 -11.45767,5.565433 C 139.26551,51.373155 134.675,49.550817 130,47.619647 l -8.5,-3.511219 -1.84498,-7.804214 C 115.23135,17.592265 115.52253,18 106.58356,18 c -4.70691,0 -6.669423,0.437397 -7.858679,1.751509 -0.871801,0.96333 -2.776354,6.505593 -4.232338,12.316139 -1.455984,5.810547 -2.949937,10.984867 -3.319894,11.498491 -0.732206,1.016547 -15.310912,7.299815 -18.869642,8.132617 C 70.768099,52.05795 67.164544,50.372654 60.34534,46.106444 54.976969,42.7479 49.493905,40 48.160754,40 44.916387,40 36.997017,47.895303 37.008441,51.118421 37.013083,52.428289 39.709285,58 43,63.5 c 3.290715,5.5 5.979347,10.675 5.974737,11.5 -0.0046,0.825 -1.549168,5.325 -3.432351,10 l -3.423971,8.5 -9.309207,2.262789 C 27.689143,97.007322 22.518967,98.245498 21.319927,98.51429 17.221859,99.432965 16,101.72644 16,108.5 c 0,4.20534 0.48835,6.84549 1.442747,7.79989 0.793511,0.79351 6.402963,2.67331 12.46545,4.17733 6.062486,1.50403 11.434555,3.24944 11.93793,3.87869 1.419633,1.77463 7.1549,15.92143 7.145432,17.62515 C 48.986917,142.81648 46.290715,148 43,153.5 39.709285,159 37.013083,164.38454 37.008441,165.46565 36.998292,167.82895 45.75962,177 48.027483,177 c 0.881466,0 6.201014,-2.925 11.821218,-6.5 5.620203,-3.575 10.606714,-6.5 11.081134,-6.5 0.47442,0 4.171788,1.51108 8.216373,3.35796 4.044586,1.84687 8.508711,3.8246 9.920278,4.39494 2.21675,0.89568 2.877855,2.31181 4.851414,10.39205 1.256709,5.14528 2.891329,10.81755 3.632487,12.60505 1.347441,3.24971 1.34821,3.25 8.698583,3.25 4.30679,0 7.83874,-0.48771 8.52872,-1.17769 z M 94.945323,145.59593 C 83.358238,141.17584 73.822645,132.29755 69.908118,122.28458 66.715266,114.11758 66.746799,101.81206 69.981879,93.5 73.22693,85.162314 83.162314,75.22693 91.5,71.981879 c 8.233335,-3.204438 20.62637,-3.264405 28.61169,-0.138447 12.41788,4.861143 21.49694,15.515806 24.42106,28.659168 1.51234,6.79767 1.52495,8.13577 0.14065,14.92389 -2.61135,12.80519 -10.00377,22.33778 -21.6734,27.94802 -5.60185,2.69312 -7.74359,3.15618 -15.5,3.35116 -5.68809,0.143 -10.308087,-0.27274 -12.554677,-1.12974 z M 116.29183,135.992 c 6.99751,-2.6181 13.12626,-7.95494 16.48412,-14.35415 2.30842,-4.39924 2.69801,-6.35979 2.71002,-13.63785 0.0125,-7.56713 -0.31153,-9.087768 -2.95235,-13.855553 C 128.90844,87.599478 124.24818,83.620158 117,80.880544 98.046468,73.716625 77,88.276503 77,108.55241 c 0,20.59755 20.086689,34.62516 39.29183,27.43959 z"
       id="path4594"
       inkscape:connector-curvature="0" />
  </g>
  <g
     inkscape:groupmode="layer"
     id="layer1"
     inkscape:label="Overlay"
     style="opacity:0.692" />
  <g
     inkscape:groupmode="layer"
     id="layer2"
     inkscape:label="Icon" />
</svg>
